# xmcd
# 
# Track frame offsets:
#     150
#     10490
#     23680
#     40311
#     51396
#     63066
#     77335
#     88856
#     102714
#     121157
#     137363
#     153694
#     165771
#     175586
#     187990
# 
# Disc length: 2718
# 
# Revision: 0
# Processed by: cddbd v1.5.2PL0 Copyright (c) Steve Scherf et al.
# Submitted via: fre:ac v1.0.27
# 
DISCID=b10a9c0f
DTITLE=Various Artist - Best of Country - Disc 1
DYEAR=0
DGENRE=Country
TTITLE0=Faron Young - Hello Walls
TTITLE1=Lynn Anderson - Rose Garden
TTITLE2=T. G. Sheppart - Last Cheaters Waltz
TTITLE3=Jack Greene - There Goes My Everything
TTITLE4=Donna Fargo - Happiest Girl in the Whole USA
TTITLE5=T. Graham Brown - Hell and High Water
TTITLE6=Holly Dunn - Are You Ever Gonna Love Me
TTITLE7=Moe Brandy - I Cheated Me Right Out of You
TTITLE8=Juice Newton - The Sweetest Thing
TTITLE9=Exile - She's a Miracle
TTITLE10=Janie Fricke - It Ain't Easy Bein Easy
TTITLE11=Freddy Fender - Before the Next Teardrop Falls
TTITLE12=Lynn Anderson - What a Man My Man Is
TTITLE13=T.G. Sheppard - Trying to Beat the Morning Home
TTITLE14=BJ Thomas - Another Somebody Done Somebody Wrong Song
EXTD=
EXTT0=
EXTT1=
EXTT2=
EXTT3=
EXTT4=
EXTT5=
EXTT6=
EXTT7=
EXTT8=
EXTT9=
EXTT10=
EXTT11=
EXTT12=
EXTT13=
EXTT14=
PLAYORDER=
